<?xml version="1.0" encoding="utf-8"?>
<!-- Generator: Adobe Illustrator 19.0.1, SVG Export Plug-In . SVG Version: 6.00 Build 0)  -->
<svg version="1.1" id="Layer_1" xmlns="http://www.w3.org/2000/svg" xmlns:xlink="http://www.w3.org/1999/xlink" x="0px" y="0px"
	 viewBox="0 0 80 44" style="enable-background:new 0 0 80 44;" xml:space="preserve">
<style type="text/css">
	.st0{fill-rule:evenodd;clip-rule:evenodd;fill:#231F20;}
	.st1{fill-rule:evenodd;clip-rule:evenodd;fill:#F26F21;}
</style>
<g>
	<path class="st0" d="M0.2,42.8l0.3-1c0.3,0.3,0.6,0.4,0.8,0.6C1.9,42.8,2.6,43,3.4,43c0.9,0,1.6-0.3,2.1-0.8c0.4-0.5,0.7-1,0.7-1.7
		c0-0.8-0.3-1.4-1-1.9c-0.3-0.2-0.9-0.6-2-1.1c-1-0.5-1.8-1-2.2-1.4c-0.6-0.5-0.8-1.2-0.8-1.9c0-0.6,0.2-1.2,0.5-1.6
		c0.7-0.9,1.8-1.4,3.3-1.4c0.9,0,1.8,0.2,2.7,0.6l-0.3,0.8c-0.9-0.6-1.7-0.9-2.5-0.9c-0.8,0-1.4,0.2-1.9,0.7
		c-0.4,0.4-0.6,0.9-0.6,1.4c0,0.6,0.2,1,0.6,1.4c0.4,0.4,1.1,0.8,2.1,1.3c0.7,0.3,1.2,0.6,1.5,0.8c0.3,0.2,0.6,0.4,0.8,0.6
		c0.6,0.6,0.9,1.4,0.9,2.2c0,0.6-0.2,1.2-0.5,1.8c-0.7,1.1-1.9,1.7-3.5,1.7C2.3,43.7,1.2,43.4,0.2,42.8L0.2,42.8z M14.6,31.2
		c1.9,0,3.4,0.5,4.4,1.6c1.1,1.1,1.6,2.7,1.6,4.7c0,2-0.5,3.6-1.6,4.7c-1,1.1-2.5,1.6-4.4,1.6c-2,0-3.5-0.6-4.5-1.7
		c-1-1.1-1.5-2.7-1.5-4.7c0-1.9,0.5-3.4,1.6-4.6C11.2,31.7,12.6,31.2,14.6,31.2L14.6,31.2z M14.5,31.8c-1.6,0-2.8,0.6-3.6,1.7
		c-0.7,1-1.1,2.3-1.1,3.9c0,1.7,0.4,3.1,1.1,4.1c0.8,1.1,2,1.7,3.7,1.7c1.6,0,2.7-0.5,3.6-1.6c0.8-1,1.1-2.4,1.1-4.1
		c0-1.8-0.4-3.1-1.1-4.1c-0.4-0.5-0.9-0.9-1.5-1.2C16,31.9,15.3,31.8,14.5,31.8L14.5,31.8z M21.9,31.3h5.8v0.6
		c-0.2,0-0.5-0.1-0.7-0.1h-3.9v5.2h3.4c0.2,0,0.4,0,0.6-0.1v0.6c-0.2,0-0.4-0.1-0.6-0.1h-3.4V43c0,0.2,0,0.4,0.1,0.6h-1.3
		c0-0.2,0.1-0.4,0.1-0.6V31.9C21.9,31.7,21.9,31.5,21.9,31.3L21.9,31.3z M28.9,31.3h8.8V32c-0.3-0.1-0.6-0.1-0.8-0.1h-3v11
		c0,0.2,0,0.4,0.1,0.6h-1.3c0-0.2,0.1-0.4,0.1-0.6v-11h-3c-0.2,0-0.5,0-0.8,0.1V31.3L28.9,31.3z M46.1,32.6l-3,10.5
		c0,0.1-0.1,0.2-0.1,0.5h-1.1c0-0.2,0-0.4-0.1-0.6l-3-11.1c0-0.2-0.1-0.3-0.2-0.5h1.2c0,0,0,0,0,0c0,0,0,0.2,0.1,0.4l2.8,10.4
		l3-10.3c0-0.2,0.1-0.3,0.1-0.4c0,0,0-0.1,0-0.1H47c0,0,0,0.1,0,0.1c0,0.1,0,0.2,0.1,0.4l3.1,10.4L53,31.8c0-0.2,0.1-0.3,0.1-0.5
		h0.7c0,0.1-0.1,0.2-0.1,0.5l-3,11.3c0,0.1-0.1,0.3-0.1,0.5h-1.1c0-0.2,0-0.4-0.1-0.6L46.1,32.6L46.1,32.6z M55.1,39.4h5.2l1.4,3.7
		c0.1,0.2,0.1,0.3,0.1,0.5h1.4c-0.1-0.2-0.2-0.4-0.3-0.5l-4.4-11.5c0-0.1-0.1-0.2-0.1-0.3h-1.1c0,0.2-0.1,0.3-0.1,0.4l-4.2,11.4
		c0,0.1-0.1,0.3-0.2,0.5h0.7c0-0.2,0-0.4,0.1-0.5L55.1,39.4L55.1,39.4z M55.3,38.9l2.4-6.4l2.5,6.4H55.3L55.3,38.9z M65.6,37.7V43
		c0,0.2,0,0.4,0.1,0.6h-1.3c0-0.2,0.1-0.4,0.1-0.6V31.9c0-0.2,0-0.4-0.1-0.6h2.8c0.8,0,1.5,0.1,2.1,0.4c0.6,0.2,1,0.6,1.4,1
		c0.4,0.5,0.6,1.1,0.6,1.8c0,1-0.3,1.7-1,2.3c-0.7,0.5-1.7,0.9-3,0.9l5,5.4c0.1,0.1,0.3,0.3,0.6,0.4h-1.8c-0.1-0.1-0.2-0.3-0.4-0.5
		L65.6,37.7L65.6,37.7z M65.6,37.3h1.3c0.7,0,1.2-0.1,1.8-0.4c0.9-0.5,1.3-1.2,1.3-2.2c0-0.5-0.1-0.9-0.3-1.3
		c-0.2-0.4-0.5-0.7-0.8-0.9c-0.5-0.3-1.2-0.5-2.1-0.5h-1.1V37.3L65.6,37.3z M73.9,31.3h5.9V32c-0.2-0.1-0.4-0.1-0.6-0.1h-4.1V37h4
		c0.3,0,0.5,0,0.7-0.1v0.6c-0.2,0-0.4,0-0.7,0h-4v5.4h4c0.1,0,0.3,0,0.7-0.1v0.7H74c0-0.2,0-0.4,0-0.6V31.9
		C74,31.7,74,31.5,73.9,31.3z"/>
	<path class="st0" d="M3.5,15.5v11.2c0,0.4,0,0.9,0.1,1.3H0.8C0.9,27.6,1,27.1,1,26.7V2.2c0-0.4,0-0.9-0.1-1.3H8
		c1.8,0,3.5,0.4,5,1.2c2.4,1.2,3.6,3.2,3.6,5.9c0,2.2-0.8,3.9-2.3,5.2c-1.8,1.6-4.2,2.3-7.4,2.3H3.5L3.5,15.5z M32.7,13.2l8.2,0
		c-0.1,0.4-0.1,0.9-0.1,1.3V25c0,0.5,0.1,1,0.3,1.5c-2.1,0.8-3.8,1.3-5,1.5c-1.2,0.3-2.5,0.4-4,0.4c-3.9,0-6.9-1.2-9.1-3.6
		c-2.4-2.6-3.6-6.1-3.6-10.4c0-4.7,1.4-8.3,4.3-10.8c2.3-2,5.4-3,9.1-3c1.3,0,2.4,0.1,3.5,0.3c1,0.2,2.3,0.6,3.9,1.2v2.4
		c-2.7-1.6-5.3-2.4-7.7-2.4c-2.9,0-5.2,1-7.1,2.9c-1.1,1.1-1.9,2.4-2.3,3.8c-0.5,1.7-0.8,3.6-0.8,5.7c0,1.4,0.2,2.9,0.5,4.3
		c0.3,1.4,0.7,2.6,1.2,3.4c1,1.8,2.6,3.1,4.6,3.9c1.3,0.5,2.7,0.8,4.2,0.8c2,0,3.8-0.5,5.6-1.4l0-11.3h-5.5V13.2L32.7,13.2z
		 M3.5,14.3h3.2c1.6,0,2.9-0.2,3.8-0.6c1-0.4,1.8-1.2,2.4-2.1c0.6-1,1-2.2,1-3.5c0-1.8-0.6-3.3-1.8-4.4c-1.2-1.1-2.8-1.6-4.9-1.6
		H3.5V14.3L3.5,14.3z M45.1,26.3l0.7-2.2c0.6,0.6,1.2,1,1.7,1.3c1.4,1,2.9,1.4,4.6,1.4c2,0,3.5-0.6,4.6-1.8c0.9-1,1.4-2.2,1.4-3.7
		c0-1.7-0.7-3.2-2.1-4.3c-0.6-0.5-2-1.3-4.2-2.4c-2.2-1.1-3.8-2.1-4.7-3.1c-1.2-1.2-1.8-2.6-1.8-4.3c0-1.3,0.4-2.6,1.2-3.6
		c1.5-2.1,3.9-3.1,7.1-3.1c1.9,0,3.8,0.5,5.8,1.4l-0.7,1.9c-1.9-1.3-3.8-1.9-5.5-1.9c-1.7,0-3.1,0.5-4.1,1.6
		c-0.8,0.9-1.3,1.9-1.3,3.2c0,1.2,0.4,2.2,1.2,3.1c0.8,0.8,2.3,1.8,4.6,2.9c1.5,0.8,2.6,1.4,3.3,1.8c0.7,0.4,1.3,0.9,1.8,1.4
		c1.3,1.4,1.9,3,1.9,4.8c0,1.4-0.4,2.7-1.1,3.9c-1.6,2.5-4.1,3.7-7.5,3.7C49.6,28.4,47.3,27.7,45.1,26.3z"/>
	<rect x="64.2" y="1.1" class="st1" width="16.2" height="26.6"/>
</g>
</svg>
