<svg version="1.1" id="Layer_1" xmlns="http://www.w3.org/2000/svg" xmlns:xlink="http://www.w3.org/1999/xlink" x="0px" y="0px" viewBox="0 0 118 65" style="enable-background:new 0 0 118 65;" height="65" width="118" xml:space="preserve">
<style type="text/css">
    .st0 {
      fill: none;
    }

    .st1 {
      fill: #ffffff !important;
      stroke: none;
    }

    .st2 {
      fill: #ffffff !important;
    }
</style>
    <rect class="st0" width="118" height="65"></rect>
    <path class="st2" d="M91.8,41.4h5.8V42C97.4,42,97.2,42,97,42h-4v5h3.9c0.3,0,0.5,0,0.7-0.1v0.6c-0.2,0-0.4,0-0.7,0H93v5.3h3.9
	c0.1,0,0.3,0,0.7-0.1v0.7h-5.7c0-0.2,0-0.4,0-0.6V42C91.8,41.8,91.8,41.6,91.8,41.4 M83.6,47.2h1.2c0.6,0,1.2-0.1,1.7-0.4
	c0.8-0.5,1.3-1.2,1.3-2.2c0-0.4-0.1-0.9-0.3-1.2c-0.2-0.4-0.5-0.7-0.8-0.9c-0.5-0.3-1.2-0.5-2.1-0.5h-1.1L83.6,47.2L83.6,47.2z
	 M83.6,47.7v5.1c0,0.2,0,0.4,0.1,0.6h-1.3c0-0.2,0.1-0.4,0.1-0.6V42c0-0.2,0-0.4-0.1-0.6h2.7c0.8,0,1.5,0.1,2.1,0.4
	c0.5,0.2,1,0.6,1.3,1c0.4,0.5,0.5,1.1,0.5,1.7c0,0.9-0.3,1.7-1,2.2c-0.7,0.5-1.6,0.8-2.9,0.9l4.8,5.3c0.1,0.2,0.3,0.3,0.5,0.4h-1.8
	c-0.1-0.1-0.2-0.3-0.3-0.5L83.6,47.7z M73.6,48.8h4.7l-2.4-6.2L73.6,48.8z M73.4,49.3l-1.4,3.6c0,0.1-0.1,0.2-0.1,0.5h-0.7
	c0.1-0.2,0.2-0.3,0.2-0.5l4.1-11.1c0-0.1,0.1-0.2,0.1-0.4h1.1c0,0.1,0,0.2,0.1,0.3l4.3,11.2c0,0.1,0.1,0.3,0.3,0.5H80
	c0-0.2,0-0.3-0.1-0.5l-1.4-3.6L73.4,49.3L73.4,49.3z M64.7,42.7l-2.9,10.2c0,0.1-0.1,0.2-0.1,0.5h-1.1c0-0.2,0-0.4-0.1-0.6
	l-2.9-10.8c0-0.2-0.1-0.3-0.2-0.5h1.2c0,0,0,0,0,0c0,0,0,0.2,0.1,0.4L61.5,52l2.9-10.1c0-0.2,0.1-0.3,0.1-0.4c0,0,0-0.1,0-0.1h1.2
	c0,0,0,0.1,0,0.1c0,0.1,0,0.2,0.1,0.4l3,10.1l2.7-10.1c0-0.2,0.1-0.3,0.1-0.4h0.6c0,0.1-0.1,0.2-0.2,0.4l-3,11
	c0,0.1-0.1,0.2-0.1,0.5h-1.1c0-0.2,0-0.4-0.1-0.6L64.7,42.7z M48,41.4h8.6v0.7C56.2,42,55.9,42,55.7,42h-2.9v10.7
	c0,0.2,0,0.4,0.1,0.6h-1.3c0-0.2,0.1-0.4,0.1-0.6V42h-3c-0.2,0-0.5,0-0.8,0.1L48,41.4L48,41.4z M41.1,41.4h5.7V42
	c-0.2,0-0.4-0.1-0.7-0.1h-3.8V47h3.3c0.2,0,0.4,0,0.6-0.1v0.6c-0.2,0-0.4-0.1-0.6-0.1h-3.3v5.3c0,0.2,0,0.4,0.1,0.6h-1.3
	c0-0.2,0.1-0.4,0.1-0.6V42C41.2,41.8,41.1,41.6,41.1,41.4z M33.9,41.9c-1.6,0-2.7,0.5-3.5,1.6c-0.7,1-1,2.2-1,3.8c0,1.7,0.3,3,1,4
	c0.8,1.1,2,1.6,3.6,1.6c1.5,0,2.7-0.5,3.5-1.5c0.7-1,1.1-2.3,1.1-4c0-1.7-0.4-3-1.1-4c-0.4-0.5-0.9-0.9-1.5-1.2
	C35.4,42,34.7,41.9,33.9,41.9z M34,41.3c1.8,0,3.3,0.5,4.3,1.6c1.1,1.1,1.6,2.6,1.6,4.5c0,2-0.5,3.5-1.6,4.6c-1,1-2.4,1.6-4.3,1.6
	c-1.9,0-3.4-0.5-4.4-1.6c-1-1.1-1.5-2.6-1.5-4.6c0-1.9,0.5-3.3,1.6-4.4C30.7,41.8,32.1,41.3,34,41.3z M20,52.6l0.3-1
	c0.3,0.2,0.5,0.4,0.8,0.6c0.6,0.4,1.3,0.6,2.1,0.6c0.9,0,1.6-0.3,2.1-0.8c0.4-0.4,0.6-1,0.6-1.6c0-0.8-0.3-1.4-0.9-1.9
	C24.7,48.3,24,48,23,47.5c-1-0.5-1.7-0.9-2.1-1.4c-0.5-0.5-0.8-1.2-0.8-1.9c0-0.6,0.2-1.1,0.5-1.6c0.7-0.9,1.7-1.4,3.2-1.4
	c0.9,0,1.7,0.2,2.6,0.6l-0.3,0.8c-0.9-0.5-1.7-0.8-2.5-0.8c-0.8,0-1.4,0.2-1.9,0.7c-0.4,0.4-0.6,0.9-0.6,1.4c0,0.5,0.2,1,0.5,1.4
	c0.4,0.4,1.1,0.8,2.1,1.3c0.7,0.3,1.2,0.6,1.5,0.8c0.3,0.2,0.6,0.4,0.8,0.6c0.6,0.6,0.9,1.3,0.9,2.1c0,0.6-0.2,1.2-0.5,1.7
	c-0.7,1.1-1.8,1.6-3.4,1.6C22,53.5,21,53.2,20,52.6z"></path>
    <path class="st2" d="M63.7,36.6l0.7-2.2c0.6,0.5,1.2,1,1.6,1.3c1.3,0.9,2.9,1.4,4.5,1.4c1.9,0,3.4-0.6,4.5-1.8c0.9-1,1.4-2.2,1.4-3.6
	c0-1.7-0.7-3.1-2-4.2c-0.6-0.5-1.9-1.2-4.1-2.3c-2.2-1.1-3.7-2.1-4.6-3c-1.2-1.2-1.7-2.5-1.7-4.2c0-1.3,0.4-2.5,1.2-3.6
	c1.5-2,3.8-3,6.9-3c1.8,0,3.7,0.4,5.6,1.3l-0.7,1.8c-1.9-1.2-3.7-1.8-5.3-1.8c-1.7,0-3,0.5-4,1.6c-0.8,0.9-1.2,1.9-1.2,3.1
	c0,1.2,0.4,2.2,1.2,3c0.8,0.8,2.3,1.8,4.5,2.9c1.5,0.7,2.6,1.3,3.3,1.8c0.7,0.4,1.2,0.9,1.7,1.4c1.3,1.4,1.9,2.9,1.9,4.7
	c0,1.3-0.4,2.6-1.1,3.8c-1.5,2.4-4,3.6-7.3,3.6C68.1,38.5,65.9,37.9,63.7,36.6 M23.2,24.9h3.1c1.5,0,2.8-0.2,3.7-0.6
	c1-0.4,1.8-1.1,2.4-2c0.6-1,0.9-2.1,0.9-3.4c0-1.8-0.6-3.2-1.8-4.3c-1.2-1-2.8-1.6-4.8-1.6h-3.6L23.2,24.9L23.2,24.9z M51.7,23.8h8
	c-0.1,0.4-0.1,0.9-0.1,1.2v10.2c0,0.5,0.1,1,0.3,1.4c-2.1,0.7-3.7,1.2-4.9,1.5c-1.2,0.2-2.5,0.4-3.9,0.4c-3.8,0-6.7-1.2-8.9-3.5
	c-2.3-2.6-3.5-5.9-3.5-10.1c0-4.5,1.4-8,4.2-10.5c2.2-2,5.2-2.9,8.9-2.9c1.2,0,2.3,0.1,3.4,0.3c1,0.2,2.3,0.6,3.7,1.2v2.3
	c-2.6-1.5-5.1-2.3-7.5-2.3c-2.8,0-5.1,0.9-6.9,2.8c-1.1,1.1-1.8,2.3-2.2,3.7c-0.5,1.7-0.8,3.5-0.8,5.6c0,1.4,0.2,2.8,0.5,4.2
	c0.3,1.4,0.7,2.5,1.2,3.3c1,1.8,2.5,3.1,4.5,3.8c1.3,0.5,2.6,0.7,4.1,0.7c1.9,0,3.7-0.5,5.5-1.4l0-11h-5.4L51.7,23.8L51.7,23.8z
	 M23.2,26.1v10.9c0,0.4,0,0.8,0.1,1.2h-2.8c0.1-0.4,0.1-0.8,0.1-1.2V13.1c0-0.4,0-0.8-0.1-1.3h7c1.8,0,3.4,0.4,4.9,1.1
	c2.3,1.2,3.5,3.1,3.5,5.7c0,2.1-0.7,3.8-2.2,5.1c-1.7,1.5-4.1,2.3-7.2,2.3L23.2,26.1L23.2,26.1z"></path>
    <rect x="82.2" y="12" class="st1" width="15.8" height="25.9"></rect>
</svg>